<?xml version="1.0" encoding="UTF-8"?>
<svg version="1.1" xmlns="http://www.w3.org/2000/svg" width="340" height="340">
<path d="M0 0 C24.48987255 21.63930965 41.57917241 49.80940295 50.59130859 81.19921875 C50.87687622 82.1735083 50.87687622 82.1735083 51.16821289 83.16748047 C55.06773377 97.45608686 56.46495861 111.81137232 56.34130859 126.57421875 C56.33760254 127.37620697 56.33389648 128.17819519 56.33007812 129.00448608 C56.01434797 177.26635115 35.90836966 218.28932966 2.29443359 252.00390625 C-21.08530657 274.17923556 -52.27484131 289.38997783 -84.09619141 294.38671875 C-85.96597656 294.69029297 -85.96597656 294.69029297 -87.87353516 295 C-130.87036685 301.33149321 -176.85784507 291.09000435 -212.08935547 265.28051758 C-244.54648691 240.74708103 -267.92448493 208.04617878 -278.09619141 168.38671875 C-278.30646973 167.57058105 -278.51674805 166.75444336 -278.73339844 165.91357422 C-281.91017738 152.8769588 -282.48295292 139.9258341 -282.53369141 126.57421875 C-282.53995544 125.80515198 -282.54621948 125.03608521 -282.55267334 124.24371338 C-282.7757961 80.9405576 -265.02248169 41.04424675 -236.09619141 9.38671875 C-235.34853516 8.566875 -234.60087891 7.74703125 -233.83056641 6.90234375 C-227.52953964 0.32127135 -220.40452399 -5.20725037 -213.09619141 -10.61328125 C-212.52690918 -11.03754395 -211.95762695 -11.46180664 -211.37109375 -11.89892578 C-147.88230713 -58.54486462 -58.30835619 -50.69459055 0 0 Z M-140.09619141 48.38671875 C-141.01916016 48.67546875 -141.94212891 48.96421875 -142.89306641 49.26171875 C-162.4094639 56.22298155 -175.98473306 71.9058907 -184.65869141 90.1171875 C-192.12698484 107.1034962 -193.05717131 128.02413282 -186.70556641 145.55859375 C-178.30401152 166.38350047 -163.4794685 181.34206605 -143.09619141 190.38671875 C-123.55619251 197.73274217 -103.142198 197.33820702 -84.04150391 188.83203125 C-63.55125033 178.77713228 -50.98633216 164.23565905 -42.77978516 142.9765625 C-36.40075178 122.90594528 -39.31661654 101.68084017 -48.75488281 83.17211914 C-54.45772496 72.65046599 -62.31041283 64.26153787 -72.09619141 57.38671875 C-72.82837891 56.855625 -73.56056641 56.32453125 -74.31494141 55.77734375 C-93.86259735 42.79020247 -118.25532315 41.45921869 -140.09619141 48.38671875 Z M-219.41992188 236.93847656 C-221.33920915 239.06460432 -223.22650857 241.21691329 -225.09619141 243.38671875 C-205.10521827 269.66056916 -165.66340291 283.76058562 -134.02978516 288.140625 C-90.65671175 293.44915137 -47.46353963 281.52720286 -12.85400391 254.92578125 C-8.38543147 251.35803509 -4.56584049 247.95708409 -1.09619141 243.38671875 C-17.62893873 224.42096074 -36.65604484 211.62685138 -62.25976562 209.59490967 C-70.57588774 209.14361954 -78.90678974 209.22184711 -87.23291016 209.21875 C-89.28253705 209.21552876 -91.33216372 209.21216406 -93.38179016 209.20866394 C-97.66411878 209.20270301 -101.9464273 209.20082088 -106.22875977 209.20141602 C-111.67038376 209.20151742 -117.11187664 209.18787385 -122.55346966 209.17064381 C-126.78412956 209.15943227 -131.01475868 209.1574996 -135.2454319 209.15802574 C-137.24934147 209.15685904 -139.25325218 209.15251252 -141.25714684 209.14469337 C-171.67420548 209.03711652 -197.757851 213.4581386 -219.41992188 236.93847656 Z " fill="#DDDDDD" transform="translate(283.09619140625,42.61328125)"/>
</svg>
